<svg width="105" height="105" viewBox="0 0 105 105" fill="none" xmlns="http://www.w3.org/2000/svg">
<rect width="105" height="105" rx="10" fill="white"/>
<path d="M52.625 12C30.2246 12 12 30.2246 12 52.625C12 75.0254 30.2246 93.25 52.625 93.25C75.0254 93.25 93.25 75.0254 93.25 52.625C93.25 30.2246 75.0254 12 52.625 12ZM80.5547 71.375H71.7227C71.449 71.3744 71.1803 71.3019 70.9434 71.1648C70.7066 71.0277 70.5099 70.8308 70.373 70.5938L67.2207 65.1875C67.0132 64.834 66.9528 64.4132 67.0527 64.0156L69.9551 52.3125C70.0133 52.0767 70.1257 51.8577 70.2834 51.6729C70.441 51.4882 70.6396 51.3427 70.8633 51.248L76.3516 48.9238C76.6198 48.8101 76.9144 48.7736 77.2022 48.8185C77.4901 48.8633 77.7596 48.9878 77.9805 49.1777L86.1113 56.1738C86.3118 56.3464 86.4651 56.567 86.557 56.815C86.6489 57.063 86.6763 57.3303 86.6367 57.5918C85.9633 62.2116 84.3493 66.6441 81.8945 70.6152C81.7558 70.8468 81.5595 71.0385 81.3247 71.1717C81.0899 71.3048 80.8246 71.3749 80.5547 71.375ZM28.8984 48.9395L34.3867 51.2637C34.6104 51.3583 34.809 51.5038 34.9666 51.6886C35.1243 51.8733 35.2367 52.0923 35.2949 52.3281L38.1973 64.0312C38.2972 64.4288 38.2368 64.8497 38.0293 65.2031L34.877 70.5938C34.7401 70.8308 34.5434 71.0277 34.3066 71.1648C34.0697 71.3019 33.801 71.3744 33.5273 71.375H24.6953C24.4282 71.3752 24.1655 71.3069 23.9323 71.1766C23.6991 71.0463 23.5032 70.8584 23.3633 70.6309C20.9085 66.6597 19.2945 62.2272 18.6211 57.6074C18.5815 57.3459 18.6089 57.0786 18.7008 56.8306C18.7927 56.5826 18.9461 56.362 19.1465 56.1895L27.2773 49.1934C27.4974 49.0049 27.7656 48.8813 28.0519 48.8365C28.3382 48.7916 28.6313 48.8273 28.8984 48.9395ZM79.082 31.9004L75.5527 41.9355C75.4818 42.1406 75.3689 42.3287 75.2213 42.4878C75.0737 42.6468 74.8945 42.7734 74.6953 42.8594L68.918 45.3066C68.6528 45.4188 68.3619 45.4555 68.0772 45.4128C67.7925 45.3701 67.5252 45.2495 67.3047 45.0645L56.3164 35.8477C56.1408 35.7024 55.9991 35.5205 55.9013 35.3147C55.8035 35.1089 55.7518 34.8841 55.75 34.6562V28.0977C55.7502 27.8407 55.8137 27.5877 55.935 27.3612C56.0563 27.1346 56.2315 26.9414 56.4453 26.7988L64.8105 21.2246C65.0289 21.0789 65.2804 20.9905 65.5418 20.9676C65.8033 20.9448 66.0663 20.9881 66.3066 21.0937C71.12 23.1931 75.3916 26.3619 78.7969 30.3594C78.9759 30.5684 79.0966 30.8209 79.1466 31.0915C79.1967 31.3621 79.1744 31.6412 79.082 31.9004ZM40.4375 21.2246L48.8047 26.7988C49.0185 26.9414 49.1937 27.1346 49.315 27.3612C49.4363 27.5877 49.4998 27.8407 49.5 28.0977V34.6562C49.5 34.8845 49.45 35.11 49.3535 35.3168C49.257 35.5237 49.1163 35.7069 48.9414 35.8535L37.9531 45.0703C37.7326 45.2554 37.4653 45.3759 37.1806 45.4187C36.8959 45.4614 36.605 45.4247 36.3398 45.3125L30.5547 42.8594C30.3542 42.7745 30.1737 42.6486 30.0247 42.4899C29.8757 42.3311 29.7615 42.143 29.6895 41.9375L26.1602 31.9023C26.0684 31.6422 26.0472 31.3624 26.0987 31.0914C26.1502 30.8204 26.2724 30.5678 26.4531 30.3594C29.8604 26.3579 34.1355 23.1863 38.9531 21.0859C39.1925 20.9835 39.4537 20.9426 39.7129 20.9668C39.9722 20.991 40.2212 21.0797 40.4375 21.2246ZM43.8184 85.1816L39.9648 75.4766C39.8767 75.2559 39.8401 75.0181 39.8577 74.7812C39.8753 74.5443 39.9467 74.3145 40.0664 74.1094L43.0293 69.0312C43.1661 68.7942 43.3628 68.5973 43.5997 68.4602C43.8365 68.3231 44.1052 68.2506 44.3789 68.25H60.8711C61.1448 68.2506 61.4135 68.3231 61.6503 68.4602C61.8872 68.5973 62.0839 68.7942 62.2207 69.0312L65.1855 74.1094C65.3056 74.3144 65.3773 74.5441 65.3953 74.781C65.4132 75.0179 65.3769 75.2558 65.2891 75.4766L61.4629 85.1777C61.3693 85.4149 61.2191 85.6256 61.0254 85.7914C60.8317 85.9572 60.6004 86.0731 60.3516 86.1289C55.2743 87.2942 49.9991 87.2942 44.9219 86.1289C44.6749 86.0723 44.4454 85.9565 44.2532 85.7915C44.0609 85.6265 43.9117 85.4172 43.8184 85.1816Z" fill="#957DAD"/>
</svg>
